<svg width="24" height="24" viewBox="0 0 24 24" fill="none" xmlns="http://www.w3.org/2000/svg">
  <path transform="translate(3, 0)" d="M13.4001 11.29C13.4939 11.3829 13.5683 11.4935 13.619 11.6154C13.6698 11.7372 13.6959 11.8679 13.6959 12C13.6959 12.132 13.6698 12.2627 13.619 12.3845C13.5683 12.5064 13.4939 12.617 13.4001 12.71L8.81014 17.29C8.71638 17.3829 8.64203 17.4935 8.59125 17.6154C8.54046 17.7373 8.51428 17.868 8.51428 18C8.51428 18.132 8.54046 18.2627 8.59125 18.3845C8.64203 18.5064 8.71638 18.617 8.81014 18.71C8.99747 18.8962 9.25101 19.0008 9.51514 19.0008C9.77926 19.0008 10.0328 18.8962 10.2201 18.71L14.8101 14.12C15.3719 13.5575 15.6875 12.795 15.6875 12C15.6875 11.205 15.3719 10.4425 14.8101 9.88004L10.2201 5.28996C10.0339 5.10525 9.78251 5.0011 9.52014 4.99993C9.38855 4.99923 9.25808 5.02443 9.13623 5.0742C9.01437 5.12398 8.90359 5.19743 8.81014 5.28996C8.71638 5.38292 8.64203 5.49352 8.59125 5.61538C8.54046 5.73724 8.51428 5.86795 8.51428 5.99996C8.51428 6.13197 8.54046 6.26268 8.59125 6.38454C8.64203 6.5064 8.71638 6.617 8.81014 6.70996L13.4001 11.29Z" fill="#262626" />
  <path transform="translate(-3, 0)" d="M13.4001 11.29C13.4939 11.3829 13.5683 11.4935 13.619 11.6154C13.6698 11.7372 13.6959 11.8679 13.6959 12C13.6959 12.132 13.6698 12.2627 13.619 12.3845C13.5683 12.5064 13.4939 12.617 13.4001 12.71L8.81014 17.29C8.71638 17.3829 8.64203 17.4935 8.59125 17.6154C8.54046 17.7373 8.51428 17.868 8.51428 18C8.51428 18.132 8.54046 18.2627 8.59125 18.3845C8.64203 18.5064 8.71638 18.617 8.81014 18.71C8.99747 18.8962 9.25101 19.0008 9.51514 19.0008C9.77926 19.0008 10.0328 18.8962 10.2201 18.71L14.8101 14.12C15.3719 13.5575 15.6875 12.795 15.6875 12C15.6875 11.205 15.3719 10.4425 14.8101 9.88004L10.2201 5.28996C10.0339 5.10525 9.78251 5.0011 9.52014 4.99993C9.38855 4.99923 9.25808 5.02443 9.13623 5.0742C9.01437 5.12398 8.90359 5.19743 8.81014 5.28996C8.71638 5.38292 8.64203 5.49352 8.59125 5.61538C8.54046 5.73724 8.51428 5.86795 8.51428 5.99996C8.51428 6.13197 8.54046 6.26268 8.59125 6.38454C8.64203 6.5064 8.71638 6.617 8.81014 6.70996L13.4001 11.29Z" fill="#262626" />
</svg>
