<svg width="374" height="112" viewBox="0 0 374 112" fill="none" xmlns="http://www.w3.org/2000/svg">
<path d="M32.95 89.5C27.6833 89.5 23.2667 88.25 19.7 85.75C16.1333 83.25 13.45 79.85 11.65 75.55C9.85 71.2167 8.95 66.3667 8.95 61C8.95 55.5667 9.85 50.7 11.65 46.4C13.45 42.1 16.0833 38.7167 19.55 36.25C23.05 33.75 27.3667 32.5 32.5 32.5C37.6 32.5 42.0167 33.75 45.75 36.25C49.5167 38.7167 52.4333 42.1 54.5 46.4C56.5667 50.6667 57.6 55.5333 57.6 61C57.6 66.4 56.5833 71.25 54.55 75.55C52.5167 79.85 49.65 83.25 45.95 85.75C42.25 88.25 37.9167 89.5 32.95 89.5ZM6.9 112V34H17.55V71.9H19.05V112H6.9ZM31.1 78.7C34.2333 78.7 36.8167 77.9167 38.85 76.35C40.8833 74.7833 42.3833 72.6667 43.35 70C44.35 67.3 44.85 64.3 44.85 61C44.85 57.7333 44.35 54.7667 43.35 52.1C42.35 49.4 40.8 47.2667 38.7 45.7C36.6 44.1 33.9333 43.3 30.7 43.3C27.6333 43.3 25.1333 44.05 23.2 45.55C21.2667 47.0167 19.8333 49.0833 18.9 51.75C18 54.3833 17.55 57.4667 17.55 61C17.55 64.5 18 67.5833 18.9 70.25C19.8333 72.9167 21.2833 75 23.25 76.5C25.25 77.9667 27.8667 78.7 31.1 78.7ZM89.1711 89.5C83.7044 89.5 78.9044 88.3167 74.7711 85.95C70.6378 83.5833 67.4044 80.3 65.0711 76.1C62.7711 71.9 61.6211 67.0667 61.6211 61.6C61.6211 55.7 62.7544 50.5833 65.0211 46.25C67.2878 41.8833 70.4378 38.5 74.4711 36.1C78.5044 33.7 83.1711 32.5 88.4711 32.5C94.0711 32.5 98.8211 33.8167 102.721 36.45C106.654 39.05 109.571 42.7333 111.471 47.5C113.371 52.2667 114.088 57.8833 113.621 64.35H101.671V59.95C101.638 54.0833 100.604 49.8 98.5711 47.1C96.5378 44.4 93.3378 43.05 88.9711 43.05C84.0378 43.05 80.3711 44.5833 77.9711 47.65C75.5711 50.6833 74.3711 55.1333 74.3711 61C74.3711 66.4667 75.5711 70.7 77.9711 73.7C80.3711 76.7 83.8711 78.2 88.4711 78.2C91.4378 78.2 93.9878 77.55 96.1211 76.25C98.2878 74.9167 99.9544 73 101.121 70.5L113.021 74.1C110.954 78.9667 107.754 82.75 103.421 85.45C99.1211 88.15 94.3711 89.5 89.1711 89.5ZM70.5711 64.35V55.25H107.721V64.35H70.5711ZM152.427 88C148.861 88.6667 145.361 88.95 141.927 88.85C138.527 88.7833 135.477 88.1667 132.777 87C130.077 85.8 128.027 83.9167 126.627 81.35C125.394 79.0167 124.744 76.6333 124.677 74.2C124.611 71.7667 124.577 69.0167 124.577 65.95V19H136.577V65.25C136.577 67.4167 136.594 69.3167 136.627 70.95C136.694 72.5833 137.044 73.9167 137.677 74.95C138.877 76.95 140.794 78.0667 143.427 78.3C146.061 78.5333 149.061 78.4 152.427 77.9V88ZM114.777 43.45V34H152.427V43.45H114.777ZM161.039 88V14.5H173.089V88H161.039Z" fill="white"/>
<path fill-rule="evenodd" clip-rule="evenodd" d="M222.978 37.3751C216.42 29.6322 205.484 27.5494 197.268 34.6395C189.051 41.7297 187.894 53.5841 194.347 61.9697C198.48 67.3407 209.064 77.3006 216.14 83.7676C218.491 85.9167 219.667 86.9912 221.075 87.4222C222.286 87.7926 223.669 87.7926 224.88 87.4222C226.288 86.9912 227.464 85.9167 229.815 83.7676C236.891 77.3006 247.476 67.3407 251.609 61.9697C258.061 53.5841 257.046 41.6551 248.688 34.6395C240.33 27.624 229.536 29.6322 222.978 37.3751Z" fill="#F6B83D"/>
<path d="M285.6 88L266 34H278.05L291.65 73.15L305.2 34H317.3L297.7 88H285.6ZM344.87 89.5C339.404 89.5 334.604 88.3167 330.47 85.95C326.337 83.5833 323.104 80.3 320.77 76.1C318.47 71.9 317.32 67.0667 317.32 61.6C317.32 55.7 318.454 50.5833 320.72 46.25C322.987 41.8833 326.137 38.5 330.17 36.1C334.204 33.7 338.87 32.5 344.17 32.5C349.77 32.5 354.52 33.8167 358.42 36.45C362.354 39.05 365.27 42.7333 367.17 47.5C369.07 52.2667 369.787 57.8833 369.32 64.35H357.37V59.95C357.337 54.0833 356.304 49.8 354.27 47.1C352.237 44.4 349.037 43.05 344.67 43.05C339.737 43.05 336.07 44.5833 333.67 47.65C331.27 50.6833 330.07 55.1333 330.07 61C330.07 66.4667 331.27 70.7 333.67 73.7C336.07 76.7 339.57 78.2 344.17 78.2C347.137 78.2 349.687 77.55 351.82 76.25C353.987 74.9167 355.654 73 356.82 70.5L368.72 74.1C366.654 78.9667 363.454 82.75 359.12 85.45C354.82 88.15 350.07 89.5 344.87 89.5ZM326.27 64.35V55.25H363.42V64.35H326.27Z" fill="white"/>
</svg>
